<svg width="64" height="64" viewBox="0 0 64 64" fill="none" xmlns="http://www.w3.org/2000/svg">
<g id="Frame" clip-path="url(#clip0_2397_201)">
<g id="SVGRepo_iconCarrier">
<path id="Vector" d="M32 42.832C21.93 42.876 13.514 49.906 11.348 59.326L11.32 59.47C11.284 59.63 11.262 59.814 11.262 60.002C11.262 61.382 12.382 62.502 13.762 62.502C14.954 62.502 15.952 61.666 16.202 60.55L16.206 60.534C17.856 53.218 24.3 47.834 32 47.834C39.7 47.834 46.146 53.218 47.774 60.428L47.794 60.536C48.048 61.668 49.044 62.5 50.236 62.5C51.616 62.5 52.736 61.382 52.736 60C52.736 59.81 52.714 59.626 52.674 59.448L52.678 59.464C50.482 49.904 42.0681 42.874 32.004 42.832H32ZM18.328 22.204C24.044 22.204 28.68 17.57 28.68 11.852C28.68 6.134 24.046 1.5 18.328 1.5C12.612 1.5 7.97605 6.134 7.97605 11.852C7.98405 17.566 12.616 22.196 18.328 22.204ZM18.328 6.5C21.284 6.5 23.68 8.896 23.68 11.852C23.68 14.808 21.284 17.204 18.328 17.204C15.372 17.204 12.976 14.808 12.976 11.852C12.98 8.898 15.374 6.504 18.328 6.5ZM45.852 22.204C51.568 22.204 56.204 17.57 56.204 11.852C56.204 6.134 51.57 1.5 45.852 1.5C40.136 1.5 35.5 6.134 35.5 11.852C35.508 17.566 40.138 22.196 45.85 22.204H45.852ZM45.852 6.5C48.808 6.5 51.204 8.896 51.204 11.852C51.204 14.808 48.808 17.204 45.852 17.204C42.896 17.204 40.5 14.808 40.5 11.852C40.504 8.898 42.898 6.504 45.852 6.5ZM62.622 39.468C60.894 31.246 53.702 25.16 45.088 25.16C44.298 25.16 43.52 25.212 42.758 25.31L42.848 25.3C40.988 21.068 36.834 18.164 32 18.164C27.172 18.164 23.02 21.06 21.186 25.212L21.156 25.288C20.624 25.22 19.996 25.174 19.36 25.162H19.342C10.682 25.2 3.44605 31.244 1.58005 39.342L1.55605 39.466C1.52005 39.626 1.49805 39.812 1.49805 40.002C1.49805 41.384 2.61805 42.504 4.00005 42.504C5.19205 42.504 6.18805 41.67 6.44005 40.554L6.44405 40.538C7.81205 34.576 13.062 30.19 19.34 30.166C19.628 30.166 19.906 30.206 20.188 30.224C20.3 36.66 25.546 41.834 31.998 41.834C38.446 41.834 43.688 36.666 43.808 30.246V30.234C44.15 30.208 44.486 30.164 44.836 30.164C51.116 30.188 56.366 34.572 57.72 40.444L57.738 40.534C57.99 41.668 58.988 42.502 60.18 42.502C61.56 42.502 62.678 41.384 62.678 40.004C62.678 39.816 62.658 39.632 62.618 39.456L62.622 39.472V39.468ZM32 36.832C32 36.832 32 36.832 31.998 36.832C28.224 36.832 25.164 33.772 25.164 29.998C25.164 26.224 28.224 23.164 31.998 23.164C35.772 23.164 38.832 26.224 38.832 29.998C38.832 29.998 38.832 29.998 38.832 30C38.826 33.772 35.772 36.826 32 36.832Z" fill="white" stroke="white" stroke-width="2"/>
</g>
</g>
<defs>
<clipPath id="clip0_2397_201">
<rect width="64" height="64" fill="white"/>
</clipPath>
</defs>
</svg>
